<svg width="206" height="104" viewBox="0 0 206 104" fill="none" xmlns="http://www.w3.org/2000/svg">
<path fill-rule="evenodd" clip-rule="evenodd" d="M125.774 1.57141C126.948 1.57141 127.723 2.79379 127.222 3.85561L80.931 101.879C80.6666 102.439 80.1029 102.796 79.4837 102.796C78.3094 102.796 77.5348 101.574 78.0363 100.512L124.327 2.48857C124.591 1.92861 125.155 1.57141 125.774 1.57141ZM134.499 35.0761C134.499 32.2407 135.562 29.9349 137.685 28.162C139.869 26.3899 142.672 25.5035 146.095 25.5035C148.339 25.5035 150.494 25.7397 152.558 26.2123C154.275 26.594 156.222 27.2648 158.4 28.2257C159.277 28.6125 159.622 29.6656 159.174 30.5129C158.745 31.3249 157.746 31.6422 156.915 31.2517C154.95 30.3285 153.232 29.6536 151.762 29.2261C149.932 28.7535 148.073 28.5172 146.185 28.5172C143.647 28.5172 141.669 29.1087 140.253 30.2901C138.778 31.4716 138.04 33.0379 138.04 34.9877C138.04 36.8787 138.629 38.5038 139.811 39.8628C141.05 41.1632 143.794 43.0534 148.044 45.5352C151.88 47.7815 154.654 49.7015 156.366 51.2968C158.136 52.9516 159.434 54.7245 160.261 56.6155C161.026 58.5066 161.411 60.7818 161.411 63.4412C161.411 68.7005 159.965 72.866 157.074 75.9393C154.182 78.9531 150.137 80.4592 144.946 80.4592C139.929 80.4592 135.915 79.0118 132.905 76.1177C129.954 73.2799 128.478 69.4697 128.478 64.6805C128.478 60.1895 129.747 56.5272 132.286 53.691C134.764 50.7953 138.747 48.6382 144.236 47.2197C140.578 45.1519 138.04 43.2013 136.624 41.3689C135.206 39.4786 134.499 37.381 134.499 35.0761ZM173.056 29.1377C173.632 29.1377 174.168 29.4334 174.475 29.9209L185.934 48.0988C186.716 49.3392 188.522 49.3445 189.311 48.1087L200.955 29.8744C201.248 29.4154 201.755 29.1377 202.299 29.1377C203.564 29.1377 204.326 30.5386 203.638 31.6001L190.263 52.2549C189.837 52.9132 189.835 53.7598 190.258 54.4202L204.82 77.1705C205.534 78.2859 204.733 79.7496 203.408 79.7496C202.835 79.7496 202.301 79.4561 201.994 78.9717L189.2 58.8105C188.418 57.5785 186.623 57.5713 185.831 58.797L172.783 79.0003C172.481 79.4674 171.963 79.7496 171.407 79.7496C170.111 79.7496 169.328 78.3154 170.03 77.2254L184.709 54.4122C185.132 53.756 185.134 52.9142 184.715 52.2559L171.64 31.7169C170.929 30.5998 171.731 29.1377 173.056 29.1377ZM139.546 51.652C137.775 52.5385 136.358 53.6026 135.296 54.8426C134.232 56.0249 133.435 57.4442 132.905 59.0973C132.315 60.7521 132.02 62.6134 132.02 64.6805C132.02 68.5237 133.2 71.5954 135.561 73.9011C137.92 76.2037 141.08 77.3569 145.033 77.3569C149.105 77.3569 152.264 76.1763 154.505 73.8111C156.749 71.3872 157.87 67.9024 157.87 63.3528C157.87 60.2795 157.043 57.621 155.39 55.3754C153.798 53.13 151.054 51.0315 147.159 49.081C143.794 49.9088 141.258 50.7656 139.546 51.652ZM25.0794 26.2123C26.7954 26.594 28.7418 27.2646 30.9203 28.2253C31.7977 28.6123 32.1426 29.6661 31.6942 30.5137C31.2648 31.3254 30.2666 31.6425 29.4355 31.2521C27.4698 30.3287 25.7522 29.6536 24.2824 29.2261C22.4532 28.7535 20.5936 28.5172 18.705 28.5172C16.1679 28.5172 14.1903 29.1087 12.7745 30.2901C11.2976 31.4716 10.5616 33.0379 10.5616 34.9877C10.5616 36.8787 11.1508 38.5038 12.3322 39.8628C13.5707 41.1632 16.3156 43.0534 20.5647 45.5352C24.4004 47.7815 27.1742 49.7015 28.8846 51.2968C30.656 52.9516 31.9546 54.7245 32.7805 56.6155C33.5478 58.5066 33.9315 60.7818 33.9315 63.4412C33.9315 68.7005 32.4852 72.866 29.5941 75.9393C26.7023 78.9531 22.6587 80.4592 17.4658 80.4592C12.4494 80.4592 8.43629 79.0118 5.42645 76.1177C2.47521 73.2799 1 69.4697 1 64.6805C1 60.1895 2.26895 56.5272 4.80682 53.691C7.28531 50.7953 11.2687 48.6382 16.7578 47.2197C13.0987 45.1519 10.5616 43.2013 9.14417 41.3689C7.72755 39.4787 7.01964 37.3811 7.01964 35.0761C7.01964 32.2407 8.0823 29.9349 10.2068 28.162C12.3907 26.3899 15.1935 25.5035 18.6167 25.5035C20.8593 25.5035 23.0135 25.7397 25.0794 26.2123ZM12.0658 51.652C10.2952 52.5385 8.87938 53.6026 7.8159 54.8426C6.75403 56.0249 5.95705 57.4442 5.42652 59.0973C4.83579 60.7521 4.54122 62.6134 4.54122 64.6805C4.54122 68.5237 5.72106 71.5954 8.08236 73.9011C10.4421 76.2037 13.6004 77.3569 17.5549 77.3569C21.6265 77.3569 24.7841 76.1763 27.0266 73.8111C29.2691 71.3872 30.3912 67.9024 30.3912 63.3528C30.3912 60.2795 29.5644 57.621 27.9119 55.3754C26.3187 53.13 23.5737 51.0315 19.6794 49.081C16.3156 49.9088 13.777 50.7656 12.0658 51.652ZM75.8318 29.1377C77.0978 29.1377 77.9037 30.4912 77.3003 31.6042L62.0603 59.7163C61.9016 60.0089 61.8185 60.3366 61.8185 60.6695V77.934C61.8185 78.9367 61.0057 79.7496 60.003 79.7496C59.0003 79.7496 58.1875 78.9367 58.1875 77.934V60.9324C58.1875 60.6004 58.1049 60.2737 57.947 59.9816L42.7053 31.7747C42.0618 30.5839 42.9241 29.1377 44.2777 29.1377C44.9388 29.1377 45.5459 29.5026 45.8561 30.0863L58.287 53.4794C59.0381 54.8927 61.0625 54.8952 61.817 53.4837L74.3586 30.0206C74.6492 29.4771 75.2155 29.1377 75.8318 29.1377Z" fill="white" stroke="white" stroke-width="1.5"/>
</svg>
