<svg xmlns="http://www.w3.org/2000/svg" xmlns:xlink="http://www.w3.org/1999/xlink" x="0px" y="0px" viewBox="0 0 252.4 74.4" xml:space="preserve"><script xmlns=""/><script xmlns=""/>
<g>
	<g>
		<path fill="#fff" d="M92.5,70.1l3.5-5.2c3.8,2.5,7.3,3.8,10.4,3.8c2.9,0,5.2-0.5,6.9-1.5c1.7-1,2.5-2.3,2.5-3.8    c0-3-2.1-4.4-6.4-4.4c-0.7,0-2.1,0.2-4,0.5c-1.9,0.4-3.4,0.5-4.5,0.5c-5.2,0-7.8-2-7.8-5.9c0-1.2,0.6-2.3,1.8-3.3s2.7-1.7,4.5-2.1    c-5.1-2.4-7.7-6.6-7.7-12.6c0-3.8,1.3-7,4-9.6c2.7-2.5,5.9-3.8,9.9-3.8c3.6,0,6.4,0.7,8.4,2.2l3.2-3.9l4.2,4l-3.9,2.9    c1.7,2.2,2.5,5,2.5,8.5c0,3.7-1.2,6.8-3.4,9.3c-2.3,2.5-5.3,3.9-9,4.3l-5.4,0.5c-0.6,0.1-1.5,0.3-2.6,0.7s-1.6,1-1.6,1.7    c0,0.9,1.1,1.4,3.3,1.4c1,0,2.5-0.2,4.6-0.5s3.6-0.5,4.6-0.5c3.6,0,6.4,0.9,8.4,2.6c2,1.7,3,4.1,3,7.2c0,3.4-1.5,6.1-4.5,8.2    c-3,2.1-6.8,3.1-11.4,3.1c-2.4,0-4.9-0.4-7.5-1.3C96.2,72.3,94.1,71.3,92.5,70.1z M106.3,28c-2.2,0-4.1,0.8-5.5,2.4    c-1.4,1.6-2.1,3.5-2.1,5.8c0,2.5,0.7,4.7,2.1,6.3c1.4,1.7,3.2,2.5,5.6,2.5c2.3,0,4.1-0.8,5.4-2.4c1.3-1.6,1.9-3.8,1.9-6.4    c0-2.3-0.7-4.2-2.1-5.8C110.1,28.8,108.4,28,106.3,28z"/>
		<path fill="#fff" d="M127.8,49.7V8.5h6.5v40.1c0,2,0.6,3.5,1.7,4.6c1.1,1.1,2.6,1.7,4.4,1.7v5.8C132,60.7,127.8,57.1,127.8,49.7z"/>
		<path fill="#fff" d="M142.3,41.7c0-5.6,1.5-10.2,4.6-13.7s7-5.2,12-5.2c5.2,0,9.3,1.7,12.2,5s4.3,8,4.3,13.9    c0,5.9-1.5,10.5-4.4,13.9c-3,3.4-7,5.1-12.1,5.1c-5.2,0-9.3-1.7-12.2-5.2C143.7,52.2,142.3,47.5,142.3,41.7z M149.1,41.7    c0,9.2,3.2,13.8,9.7,13.8c3,0,5.4-1.2,7.1-3.7s2.6-5.8,2.6-10.1c0-9-3.2-13.6-9.7-13.6c-3,0-5.3,1.2-7.1,3.6    C150,34.1,149.1,37.5,149.1,41.7z"/>
		<path fill="#fff" d="M187.7,57.4l-2.3,3.3h-3.2V8.5h6.5v17.7c0.6-0.8,1.8-1.6,3.5-2.3c1.7-0.7,3.4-1.1,5-1.1c5,0,9.1,1.7,12.2,5.2    s4.7,7.8,4.7,13.1c0,6.1-1.6,10.9-4.7,14.4c-3.1,3.5-7.3,5.2-12.7,5.2c-1.7,0-3.4-0.3-5.1-1C189.8,59.1,188.6,58.3,187.7,57.4z     M188.7,31.1v21.1c0,0.4,0.8,1,2.4,1.8s2.8,1.2,3.7,1.2c4.4,0,7.6-1.1,9.5-3.2c1.9-2.1,2.9-5.7,2.9-10.7c0-4.1-1.1-7.4-3.3-9.7    s-5.2-3.5-9-3.5c-0.8,0-1.9,0.3-3.3,1C190,30,189.1,30.6,188.7,31.1z"/>
		<path fill="#fff" d="M251.9,42.4h-26.4c0,4.3,1.2,7.6,3.5,9.9c2.1,2,4.7,3,8,3c3.7,0,6.8-1.1,9.3-3.2l2.7,4.7    c-1,1-2.5,1.9-4.6,2.6c-2.6,1-5.5,1.4-8.7,1.4c-4.6,0-8.5-1.6-11.7-4.7c-3.6-3.4-5.4-8.1-5.4-13.9c0-6,1.8-10.9,5.5-14.5    c3.3-3.2,7.2-4.9,11.6-4.9c5.2,0,9.3,1.5,12.2,4.4c2.9,2.8,4.3,6.6,4.3,11.2C252.4,39.9,252.2,41.2,251.9,42.4z M236.2,28.3    c-2.9,0-5.3,0.9-7.3,2.8c-1.9,1.8-2.9,4-3.2,6.6H246c0-2.6-0.8-4.8-2.5-6.5C241.7,29.2,239.3,28.3,236.2,28.3z"/>
	</g>
	<path fill="#fff" d="M71,27.7H52.9H36v16.2h17.1c-3,6.5-9.5,11-17.1,11V72c19.9,0,36-16.1,36-36v-8.3H71z"/>
	<path fill="#fff" d="M36,0C16.1,0,0,16.1,0,35.9h17.1c0-10.4,8.5-18.8,18.9-18.8V0z"/>
</g>
</svg>