<svg data-v-3c7b26f9="" viewBox="0 0 130 40" fill="none" xmlns="http://www.w3.org/2000/svg" class="logo-icon"><path data-v-3c7b26f9="" d="M36.377 26.947v-11.24c0-1.224.992-2.215 2.215-2.215v13.455h-2.215zM41.803 26.947V13.492h2.33l5.336 9.764v-9.764c1.17 0 2.12.948 2.12 2.119v11.336h-2.331l-5.336-9.765v9.765h-2.12zM58.57 27.274c-1.374 0-2.446-.43-3.217-1.288-.77-.858-1.156-1.999-1.156-3.422h2.215c0 .834.18 1.5.54 2 .372.487.912.73 1.618.73.706 0 1.246-.243 1.618-.73.385-.5.578-1.16.578-1.98v-6.877c0-1.224.992-2.215 2.215-2.215v9.092c0 1.422-.392 2.563-1.175 3.421-.77.846-1.85 1.269-3.236 1.269zM65.99 13.492h7.782a1.98 1.98 0 01-1.98 1.98h-3.587v3.806h5.567v1.98h-5.567v3.71h5.567v1.98H65.99V13.491zM122.219 13.492h7.782a1.98 1.98 0 01-1.98 1.98h-3.587v3.806h5.567v1.98h-5.567v3.71h5.567v1.98h-7.782V13.491zM82.83 27.274c-1.922 0-3.444-.654-4.564-1.961-1.122-1.307-1.682-3.005-1.682-5.094 0-2.089.56-3.787 1.681-5.094 1.121-1.307 2.643-1.96 4.564-1.96 1.613 0 2.94.46 3.981 1.384 1.041.91 1.653 2.095 1.836 3.556-1.26 0-2.246-.997-3.116-1.91a3.427 3.427 0 00-.281-.263c-.618-.525-1.419-.788-2.402-.788-1.316 0-2.345.462-3.089 1.384-.732.91-1.098 2.14-1.098 3.691 0 1.55.366 2.787 1.098 3.71.744.91 1.773 1.365 3.089 1.365.983 0 1.784-.263 2.402-.788.099-.083.193-.171.281-.264.87-.912 1.856-1.909 3.116-1.909-.183 1.461-.795 2.653-1.836 3.576-1.04.91-2.368 1.365-3.98 1.365zM94.365 26.947v-11.38h-3.91c0-1.146.93-2.075 2.076-2.075h7.979v2.076h-3.93v11.38h-2.215zM103.32 26.947v-11.24c0-1.224.992-2.215 2.216-2.215v13.455h-2.216zM112.817 26.947l-4.469-13.455c1.432 0 2.699.93 3.126 2.298l2.402 7.678 2.402-7.678a3.276 3.276 0 013.127-2.298l-4.469 13.455h-2.119z" fill="#fff"></path><path data-v-3c7b26f9="" d="M3.464 11.003c.167-.215.344-.421.521-.628.008-.01.026-.012.034-.022.016-.02.042-.033.058-.053l.016-.02c.123-.117.254-.244.406-.355a6.014 6.014 0 011.677-.94c1.88-.674 3.972-.258 5.613 1.326 2.29 2.195 2.085 5.733.257 8.084-2.312 3.504-6.283 8.394-.784 12.774.989.788 1.722 1.437 4.836 2.357-2.036.384-3.925.265-6.027-.284-1.487-.859-3.825-2.696-4.62-5.178-1.203-3.763 2.116-9.389 3.72-11.555 2.202-3-1.361-6.245-3.984-2.621-1.372 1.888-3.77 7.233-2.937 11.197.487 2.248 1.137 3.887 3.713 6.138a12.182 12.182 0 01-1.391-.981c-5.986-5.7-5.291-14.514-1.108-19.239z" fill="url(#logo_svg__paint0_linear)"></path><path data-v-3c7b26f9="" d="M23.839 28.997c-.167.215-.344.421-.521.628-.008.01-.026.012-.034.022-.016.02-.042.033-.058.053l-.016.02c-.123.117-.254.244-.406.355a6.013 6.013 0 01-1.677.94c-1.88.674-3.972.258-5.613-1.326-2.29-2.195-2.085-5.733-.257-8.084 2.311-3.504 6.283-8.394.784-12.774-.989-.788-1.722-1.437-4.837-2.357 2.037-.384 3.926-.265 6.028.284 1.487.859 3.825 2.696 4.62 5.178 1.203 3.763-2.116 9.389-3.72 11.555-2.202 3 1.361 6.245 3.984 2.621 1.372-1.888 3.77-7.233 2.937-11.197-.488-2.248-1.137-3.887-3.713-6.138.477.288.941.615 1.391.981 5.985 5.7 5.291 14.514 1.108 19.239z" fill="url(#logo_svg__paint1_linear)"></path><defs data-v-3c7b26f9=""><linearGradient data-v-3c7b26f9="" id="logo_svg__paint0_linear" x1=".203" y1="20" x2="27.1" y2="20" gradientUnits="userSpaceOnUse"><stop data-v-3c7b26f9="" stop-color="#0082FA"></stop><stop data-v-3c7b26f9="" offset="1" stop-color="#00F2FE"></stop></linearGradient><linearGradient data-v-3c7b26f9="" id="logo_svg__paint1_linear" x1=".203" y1="20" x2="27.1" y2="20" gradientUnits="userSpaceOnUse"><stop data-v-3c7b26f9="" stop-color="#0082FA"></stop><stop data-v-3c7b26f9="" offset="1" stop-color="#00F2FE"></stop></linearGradient></defs></svg>